<mxfile host="Electron" modified="2023-06-01T05:12:42.426Z" agent="Mozilla/5.0 (Windows NT 10.0; Win64; x64) AppleWebKit/537.36 (KHTML, like Gecko) draw.io/21.2.8 Chrome/112.0.5615.165 Electron/24.2.0 Safari/537.36" etag="ff5SYAewfE5-axkYhbbc" version="21.2.8" type="device">
  <diagram name="Page-1" id="_bxTskcx-uTH69s2eUzP">
    <mxGraphModel dx="1436" dy="1056" grid="0" gridSize="10" guides="1" tooltips="1" connect="1" arrows="1" fold="1" page="0" pageScale="1" pageWidth="850" pageHeight="1100" math="0" shadow="0">
      <root>
        <mxCell id="0" />
        <mxCell id="1" parent="0" />
        <mxCell id="8ipgU9KL6Nm_yaJBRG0r-20" value="" style="rounded=0;whiteSpace=wrap;html=1;fontSize=16;" parent="1" vertex="1">
          <mxGeometry x="-133" y="-316" width="617" height="216" as="geometry" />
        </mxCell>
        <mxCell id="Kp_lbN4h1krf4BjbRiDf-6" style="edgeStyle=none;curved=1;rounded=0;orthogonalLoop=1;jettySize=auto;html=1;fontSize=12;startSize=8;endSize=8;" edge="1" parent="1" source="xR_7PNV1ilyZsFhJpjoF-19" target="8ipgU9KL6Nm_yaJBRG0r-7">
          <mxGeometry relative="1" as="geometry" />
        </mxCell>
        <mxCell id="xR_7PNV1ilyZsFhJpjoF-19" value="MCU" style="rounded=1;whiteSpace=wrap;html=1;fontSize=16;fillColor=#f5f5f5;fontColor=#333333;strokeColor=#666666;" parent="1" vertex="1">
          <mxGeometry x="116" y="-218" width="120" height="88.5" as="geometry" />
        </mxCell>
        <mxCell id="Kp_lbN4h1krf4BjbRiDf-7" style="edgeStyle=none;curved=1;rounded=0;orthogonalLoop=1;jettySize=auto;html=1;fontSize=12;startSize=8;endSize=8;" edge="1" parent="1" source="xR_7PNV1ilyZsFhJpjoF-20" target="xR_7PNV1ilyZsFhJpjoF-19">
          <mxGeometry relative="1" as="geometry" />
        </mxCell>
        <mxCell id="xR_7PNV1ilyZsFhJpjoF-20" value="&lt;font face=&quot;Calibri&quot;&gt;BTN&lt;/font&gt;" style="rounded=1;whiteSpace=wrap;html=1;fontSize=16;fillColor=#dae8fc;strokeColor=#6c8ebf;" parent="1" vertex="1">
          <mxGeometry x="-91" y="-194.75" width="117" height="42" as="geometry" />
        </mxCell>
        <mxCell id="xR_7PNV1ilyZsFhJpjoF-21" value="&lt;font face=&quot;Calibri&quot;&gt;EXI&lt;/font&gt;" style="text;html=1;strokeColor=none;fillColor=none;align=center;verticalAlign=middle;whiteSpace=wrap;rounded=0;fontSize=16;" parent="1" vertex="1">
          <mxGeometry x="53" y="-200" width="37" height="30" as="geometry" />
        </mxCell>
        <mxCell id="xR_7PNV1ilyZsFhJpjoF-25" value="&lt;font face=&quot;Calibri&quot; style=&quot;font-size: 18px;&quot;&gt;Block Diagram&lt;/font&gt;" style="text;html=1;strokeColor=none;fillColor=none;align=center;verticalAlign=middle;whiteSpace=wrap;rounded=0;fontSize=16;" parent="1" vertex="1">
          <mxGeometry x="16.5" y="-282" width="319" height="30" as="geometry" />
        </mxCell>
        <mxCell id="xR_7PNV1ilyZsFhJpjoF-36" style="edgeStyle=none;curved=1;rounded=0;orthogonalLoop=1;jettySize=auto;html=1;exitX=0.5;exitY=0;exitDx=0;exitDy=0;fontSize=12;startSize=8;endSize=8;" parent="1" edge="1">
          <mxGeometry relative="1" as="geometry">
            <mxPoint x="-31.5" y="-291.5" as="sourcePoint" />
            <mxPoint x="-31.5" y="-291.5" as="targetPoint" />
          </mxGeometry>
        </mxCell>
        <mxCell id="8ipgU9KL6Nm_yaJBRG0r-7" value="&lt;font face=&quot;Calibri&quot;&gt;LED&lt;/font&gt;" style="rounded=1;whiteSpace=wrap;html=1;fontSize=16;fillColor=#f8cecc;strokeColor=#b85450;" parent="1" vertex="1">
          <mxGeometry x="325" y="-194.75" width="117" height="42" as="geometry" />
        </mxCell>
        <mxCell id="8ipgU9KL6Nm_yaJBRG0r-9" value="&lt;font face=&quot;Calibri&quot;&gt;DIO&lt;/font&gt;" style="text;html=1;strokeColor=none;fillColor=none;align=center;verticalAlign=middle;whiteSpace=wrap;rounded=0;fontSize=16;" parent="1" vertex="1">
          <mxGeometry x="251" y="-200" width="60" height="30" as="geometry" />
        </mxCell>
      </root>
    </mxGraphModel>
  </diagram>
</mxfile>
